<svg xmlns="http://www.w3.org/2000/svg" viewBox="0 0 128 128" fill="none">
  <!-- Dark theme background -->
  <rect width="128" height="128" rx="28" fill="#0E1016"/>
  <rect x="2" y="2" width="124" height="124" rx="26" stroke="#FFFFFF" stroke-width="1.5" stroke-opacity="0.15"/>
  
  <g transform="translate(19, 14)">
    <!-- 1. Top Crimson Red Accent Bar -->
    <rect x="6" y="8" width="36" height="5" rx="1.5" fill="#E50914" />

    <!-- 2. Top Capital Molding -->
    <rect x="9" y="13" width="30" height="3.5" rx="0.5" fill="#FFFFFF" />

    <!-- 3. Pillar Shaft Base Body -->
    <rect x="13" y="16.5" width="22" height="63.5" fill="#FFFFFF" />

    <!-- 4. Classical Fluting Grooves -->
    <line x1="17.5" y1="20" x2="17.5" y2="76" stroke="#0E1016" stroke-width="2" stroke-linecap="round" />
    <line x1="24" y1="20" x2="24" y2="76" stroke="#0E1016" stroke-width="2" stroke-linecap="round" />
    <line x1="30.5" y1="20" x2="30.5" y2="76" stroke="#0E1016" stroke-width="2" stroke-linecap="round" />

    <!-- 5. Lower Base Plinth -->
    <rect x="9" y="80" width="30" height="3.5" rx="0.5" fill="#FFFFFF" />
    <rect x="6" y="83.5" width="36" height="5.5" rx="1.5" fill="#FFFFFF" />

    <!-- 6. Serif Bowl of P -->
    <path
      d="M35 13 C 58 13, 80 23, 80 45 C 80 66, 58 72, 35 72 V 60.5 C 51 60.5, 64 55, 64 45 C 64 33, 51 24.5, 35 24.5 Z"
      fill="#FFFFFF"
    />
  </g>
</svg>
